<?xml version="1.0" encoding="UTF-8"?>
<svg xmlns="http://www.w3.org/2000/svg" width="2652" height="934" viewBox="0 0 2652 934" fill="none">
  <circle cx="2538.51" cy="811.448" r="113.309" fill="#2C71F0"></circle>
  <path d="M2189.8 917.973V29.4133L2356.61 0V917.973H2189.8Z" fill="#15357A"></path>
  <path d="M1806.75 933.608C1741.58 933.608 1683.81 919.707 1633.42 891.905C1583.03 864.103 1543.5 825.007 1514.83 774.616C1486.16 724.225 1471.82 666.015 1471.82 599.986C1471.82 533.088 1485.72 473.574 1513.52 421.446C1542.19 369.318 1581.29 328.918 1630.81 300.248C1681.2 270.708 1740.28 255.938 1808.05 255.938C1871.47 255.938 1927.51 269.839 1976.16 297.641C2024.82 325.443 2062.61 363.67 2089.54 412.324C2117.34 460.108 2131.24 513.54 2131.24 572.618C2131.24 593.373 2130.23 614.481 2128.64 635.172H1637.33C1640.8 685.563 1658.18 725.094 1689.46 753.765C1721.6 782.435 1760.26 796.771 1805.44 796.771C1839.33 796.771 1867.56 789.386 1890.15 774.616C1913.61 758.977 1930.98 738.995 1942.28 714.668H2111.7C2099.53 755.502 2079.12 792.861 2050.45 826.744C2022.64 859.759 1987.89 885.823 1946.19 904.937C1905.35 924.051 1858.87 933.608 1806.75 933.608ZM1808.05 391.472C1767.21 391.472 1731.16 403.201 1699.88 426.659C1668.6 449.248 1648.62 484 1639.93 530.916H1961.83C1959.22 488.344 1943.58 454.461 1914.91 429.265C1886.24 404.07 1850.62 391.472 1808.05 391.472Z" fill="#15357A"></path>
  <path d="M1095.57 933.608C1030.41 933.608 972.632 919.707 922.242 891.905C871.851 864.103 832.32 825.007 803.649 774.616C774.979 724.225 760.644 666.015 760.644 599.986C760.644 533.088 774.544 473.574 802.346 421.446C831.017 369.318 870.113 328.918 919.635 300.248C970.026 270.708 1029.1 255.938 1096.87 255.938C1160.29 255.938 1216.33 269.839 1264.99 297.641C1313.64 325.443 1351.43 363.67 1378.36 412.324C1406.17 460.108 1420.07 513.54 1420.07 572.618C1420.07 593.373 1419.05 614.481 1417.46 635.172H926.151C929.626 685.563 947.003 725.094 978.28 753.765C1010.43 782.435 1049.09 796.771 1094.27 796.771C1128.15 796.771 1156.38 789.386 1178.97 774.616C1202.43 758.977 1219.81 738.995 1231.1 714.668H1400.52C1388.36 755.502 1367.94 792.861 1339.27 826.744C1311.47 859.759 1276.71 885.823 1235.01 904.937C1194.18 924.051 1147.7 933.608 1095.57 933.608ZM1096.87 391.472C1056.04 391.472 1019.98 403.201 988.705 426.659C957.428 449.248 937.446 484 928.758 530.916H1250.65C1248.04 488.344 1232.41 454.461 1203.73 429.265C1175.06 404.07 1139.44 391.472 1096.87 391.472Z" fill="#15357A"></path>
  <path d="M317.983 933.613C257.167 933.613 202.866 918.843 155.082 889.303C107.298 859.764 69.5045 819.365 41.7027 768.105C13.9009 716.845 0 658.635 0 593.475C0 528.314 13.9009 470.539 41.7027 420.148C69.5045 368.888 107.298 328.923 155.082 300.253C202.866 270.713 257.167 255.944 317.983 255.944C366.636 255.944 409.208 265.066 445.698 283.311C482.188 301.556 511.727 327.186 534.316 360.2V29.4173L701.127 0.000976562V917.974H552.561L534.316 825.446C513.465 854.117 485.663 879.312 450.911 901.032C417.027 922.753 372.718 933.613 317.983 933.613ZM353.17 787.653C407.036 787.653 450.911 769.843 484.794 734.222C519.546 697.732 536.922 651.25 536.922 594.778C536.922 538.306 519.546 492.259 484.794 456.638C450.911 420.148 407.036 401.903 353.17 401.903C300.173 401.903 256.298 419.714 221.546 455.335C186.793 490.956 169.417 537.002 169.417 593.475C169.417 649.947 186.793 696.428 221.546 732.918C256.298 769.408 300.173 787.653 353.17 787.653Z" fill="#15357A"></path>
</svg>
